#!OML:ASF H:\Terrain\Patient Classification 1\Animal1\Tuesday\Animal1.ASF
:FULLY-SPECIFIED
:DEGREES
2139
root -2.90093 16.8023 16.2449 -346.436 5.74966 719.972
lowerback -3.78526 -1.28172 -5.93595
upperback -7.15287 -1.65308 0.850516
thorax -5.14242 -0.488112 4.22081
lowerneck -11.2586 0.912547 -1.6069
upperneck 19.9192 -0.646756 10.6372
head 8.05274 0.612851 3.75981
rclavicle 3.71479e-015 2.08724e-014
rhumerus -46.3265 5.73412 -86.6007
rradius 25.5971
rwrist -6.95913
rhand -15.7912 30.3009
rfingers 7.12502
rthumb 10.4016 0.578215
lclavicle 3.71479e-015 2.08724e-014
lhumerus -43.1798 -3.41824 87.3532
lradius 31.5949
lwrist -29.7387
lhand 2.07411 42.7284
lfingers 7.12502
lthumb 27.5755 70.7283
rfemur -32.8993 17.7753 11.2482
rtibia 28.694
rfoot -1.06607 -28.196
rtoes 1.32739
lfemur -4.20115 -20.9695 -19.4424
ltibia 9.5656
lfoot -16.9268 29.3575
ltoes 6.22071
2140
root -2.95987 16.7901 16.3446 -346.511 5.56118 720.065
lowerback -3.86932 -1.30209 -6.22175
upperback -7.12839 -1.67383 0.831231
thorax -5.06362 -0.487658 4.35882
lowerneck -11.4264 1.01901 -1.65748
upperneck 20.0925 -0.5414 10.8086
head 8.13424 0.684618 3.84528
rclavicle 2.20403e-014 1.90833e-014
rhumerus -46.2957 5.78086 -86.6858
rradius 25.6875
rwrist -6.87143
rhand -16.2133 30.1613
rfingers 7.12502
rthumb 9.99439 0.418593
lclavicle 2.20403e-014 1.90833e-014
lhumerus -43.3784 -2.82948 86.9214
lradius 31.73
lwrist -29.8638
lhand 3.24408 43.0946
lfingers 7.12502
lthumb 28.6938 70.9106
rfemur -32.6179 17.2818 11.7135
rtibia 28.8398
rfoot -0.600274 -27.0313
rtoes -0.0678209
lfemur -4.52349 -20.7114 -19.5017
ltibia 11.0355
lfoot -16.6413 29.9723
ltoes 1.99015
2141
root -3.02557 16.7814 16.4341 -346.56 5.58405 719.059
lowerback -3.90317 -1.23355 -5.44638
upperback -7.20623 -1.57447 1.1179
thorax -5.1408 -0.465226 4.22388
lowerneck -11.2784 1.023 -1.5632
upperneck 19.9607 -0.529965 10.7549
head 8.06259 0.684599 3.80545
rclavicle -1.73937e-015 -1.8487e-014
rhumerus -46.2793 5.9772 -86.8546
rradius 25.6249
rwrist -7.02905
rhand -16.2525 29.7458
rfingers 7.12502
rthumb 9.95655 0.00124839
lclavicle -1.73937e-015 -1.8487e-014
lhumerus -43.6078 -2.5691 86.678
lradius 31.8617
lwrist -29.8511
lhand 4.2271 43.5097
lfingers 7.12502
lthumb 29.6325 71.1629
rfemur -32.5754 17.1719 13.2903
rtibia 29.0989
rfoot -0.466273 -26.4346
rtoes -2.12178
lfemur -4.91898 -19.9037 -18.2321
ltibia 12.2777
lfoot -15.6279 30.1843
ltoes -3.48371
2142
root -3.0838 16.7764 16.5172 -346.878 5.5984 718.388
lowerback -3.63026 -1.14937 -4.85516
upperback -7.15839 -1.47192 1.26648
thorax -5.25876 -0.437929 4.05225
lowerneck -11.0378 0.973159 -1.50482
upperneck 19.6026 -0.550224 10.6286
head 7.90077 0.651084 3.73579
rclavicle 2.41896e-014 2.24627e-014
rhumerus -46.1338 6.08065 -86.9195
rradius 25.337
rwrist -6.78197
rhand -16.4567 30.0912
rfingers 7.12502
rthumb 9.7596 0.337314
lclavicle 2.41896e-014 2.24627e-014
lhumerus -43.6586 -2.14554 86.3578
lradius 31.8013
lwrist -29.9007
lhand 3.59277 43.162
lfingers 7.12502
lthumb 29.0268 70.9211
rfemur -32.1444 16.7499 14.6511
rtibia 29.3591
rfoot -0.810441 -25.9331
rtoes -2.58545
lfemur -5.04436 -19.1773 -17.4657
ltibia 13.7447
lfoot -15.6424 29.8665
ltoes -5.50364
2143
root -3.13698 16.7568 16.6042 -347.118 5.45974 718.477
lowerback -3.51837 -1.13156 -4.99106
upperback -7.00951 -1.45345 1.21478
thorax -5.16498 -0.429222 4.07457
lowerneck -11.1635 1.00016 -1.59589
upperneck 19.5106 -0.490826 10.6389
head 7.88868 0.674072 3.75959
rclavicle -1.05604e-014 -1.41137e-014
rhumerus -45.8402 6.10877 -86.8623
rradius 25.1235
rwrist -6.29244
rhand -16.6805 30.4059
rfingers 7.12502
rthumb 9.54364 0.642037
lclavicle -1.05604e-014 -1.41137e-014
lhumerus -43.5962 -1.44214 85.9029
lradius 31.7636
lwrist -30.1044
lhand 2.82744 42.7493
lfingers 7.12502
lthumb 28.2956 70.632
rfemur -31.657 16.0934 15.1826
rtibia 29.5292
rfoot -0.150288 -25.3921
rtoes -4.53055
lfemur -5.27005 -18.2132 -17.6452
ltibia 15.5829
lfoot -16.0367 29.6686
ltoes -7.73345
2144
root -3.19646 16.7414 16.6953 -347.052 5.38793 718.244
lowerback -3.70001 -1.15945 -4.93047
upperback -7.02012 -1.47925 1.2784
thorax -5.06982 -0.446043 4.10316
lowerneck -11.0802 1.14711 -1.23455
upperneck 19.3681 -0.278115 10.3163
head 7.81366 0.765208 3.60399
rclavicle -1.46728e-014 -1.09332e-014
rhumerus -45.6304 6.17438 -86.9095
rradius 25.1657
rwrist -6.55702
rhand -16.4106 29.9168
rfingers 7.12502
rthumb 9.80399 0.165058
lclavicle -1.46728e-014 -1.09332e-014
lhumerus -43.6986 -0.790435 85.3945
lradius 31.8261
lwrist -30.3148
lhand 2.19759 42.688
lfingers 7.12502
lthumb 27.6935 70.669
rfemur -31.5778 15.6604 15.9329
rtibia 29.7576
rfoot 0.167447 -24.9662
rtoes -5.23745
lfemur -5.88767 -17.3723 -17.2868
ltibia 17.2726
lfoot -16.3451 29.448
ltoes -8.8477
2145
root -3.25696 16.7376 16.7811 -347.004 5.27251 717.745
lowerback -3.80625 -1.14479 -4.62025
upperback -7.06234 -1.45095 1.42034
thorax -5.0581 -0.443154 4.07536
lowerneck -10.8435 1.34495 -0.844762
upperneck 19.0829 0.014574 9.99399
head 7.66054 0.889068 3.44527
rclavicle 2.08475e-014 -5.36719e-015
rhumerus -45.3907 6.11019 -86.8764
rradius 25.2179
rwrist -6.70817
rhand -16.1112 29.626
rfingers 7.12502
rthumb 10.0929 -0.111939
lclavicle 2.08475e-014 -5.36719e-015
lhumerus -43.9973 -0.238619 84.9489
lradius 32.092
lwrist -30.3319
lhand 1.17114 42.5346
lfingers 7.12502
lthumb 26.7116 70.6693
rfemur -31.5421 15.4589 16.9186
rtibia 29.9821
rfoot -0.62621 -24.5966
rtoes -3.3981
lfemur -6.55889 -16.7933 -16.586
ltibia 18.8511
lfoot -16.1151 29.2153
ltoes -8.95093
